Exact Audio Copy V0.99 prebeta 5 from 4. May 2009

EAC extraction logfile from 3. July 2009, 13:25

mr.Credo / HSH-Bola

Used drive  : Optiarc DVD RW AD-7200S   Adapter: 0  ID: 0

Read mode               : Secure
Utilize accurate stream : Yes
Defeat audio cache      : Yes
Make use of C2 pointers : No

Read offset correction                      : 48
Overread into Lead-In and Lead-Out          : No
Fill up missing offset samples with silence : Yes
Delete leading and trailing silent blocks   : No
Null samples used in CRC calculations       : Yes
Used interface                              : Native Win32 interface for Win NT & 2000
Gap handling                                : Appended to previous track

Used output format              : User Defined Encoder
Selected bitrate                : 320 kBit/s
Quality                         : High
Add ID3 tag                     : No
Command line compressor         : C:\Program Files\Exact Audio Copy\Flac\flac.exe
Additional command line options : -6 -V -T "ARTIST=%a" -T "TITLE=%t" -T "ALBUM=%g" -T "DATE=%y" -T "TRACKNUMBER=%n" -T "GENRE=%m" -T "COMMENT=%e" %s -o %d


TOC of the extracted CD

     Track |   Start  |  Length  | Start sector | End sector 
    ---------------------------------------------------------
        1  |  0:00.02 |  5:16.35 |         2    |    23736   
        2  |  5:16.37 |  4:13.55 |     23737    |    42766   
        3  |  9:30.17 |  3:39.70 |     42767    |    59261   
        4  | 13:10.12 |  4:23.30 |     59262    |    79016   


Track  1

     Filename C:\Users\Vis\Desktop\кредо\01 - HSH-Bola-Bola.wav

     Pre-gap length  0:00:02.02

     Peak level 100.0 %
     Track quality 99.9 %
     Test CRC 917A51D4
     Copy CRC 917A51D4
     Track not present in AccurateRip database
     Copy OK

Track  2

     Filename C:\Users\Vis\Desktop\кредо\02 - X-Tasi.wav

     Pre-gap length  0:00:04.26

     Peak level 100.0 %
     Track quality 100.0 %
     Test CRC 21BB7CC9
     Copy CRC 21BB7CC9
     Track not present in AccurateRip database
     Copy OK

Track  3

     Filename C:\Users\Vis\Desktop\кредо\03 - Кокаинум.wav

     Pre-gap length  0:00:04.29

     Peak level 100.0 %
     Track quality 100.0 %
     Test CRC E609D3A0
     Copy CRC E609D3A0
     Track not present in AccurateRip database
     Copy OK

Track  4

     Filename C:\Users\Vis\Desktop\кредо\04 - Давай Лаве.wav

     Pre-gap length  0:00:04.09

     Peak level 100.0 %
     Track quality 100.0 %
     Test CRC C1CEBC71
     Copy CRC C1CEBC71
     Track not present in AccurateRip database
     Copy OK


None of the tracks are present in the AccurateRip database

No errors occurred

End of status report
